/* XPM */
static char * memory_xpm[] = {
"32 32 387 2",
"  	c None",
". 	c #AFAFBB",
"+ 	c #9595A1",
"@ 	c #BABAC1",
"# 	c #8F8F9D",
"$ 	c #B3B3BE",
"% 	c #9F9FAC",
"& 	c #E9E9EB",
"* 	c #FFFFFF",
"= 	c #FFFFFC",
"- 	c #8F8984",
"; 	c #D5A242",
"> 	c #B5B5C0",
", 	c #BDBDC6",
"' 	c #FCFCFE",
") 	c #A7ADC3",
"! 	c #998871",
"~ 	c #C5C5CF",
"{ 	c #A9A9B3",
"] 	c #DFDFE2",
"^ 	c #F3F3F6",
"/ 	c #F3F3F8",
"( 	c #E2E7F1",
"_ 	c #84828A",
": 	c #945916",
"< 	c #CDCDD7",
"[ 	c #CFCFD4",
"} 	c #FEFEFF",
"| 	c #FBFBFB",
"1 	c #F8F8FA",
"2 	c #F8F8F9",
"3 	c #F7F7F9",
"4 	c #F6F6F8",
"5 	c #FAFAFB",
"6 	c #DEDEE5",
"7 	c #DBDCE7",
"8 	c #FFFFF9",
"9 	c #777074",
"0 	c #C5C5D0",
"a 	c #ECECF1",
"b 	c #EDEDF0",
"c 	c #EFEFF1",
"d 	c #EDEDF2",
"e 	c #EEEEF2",
"f 	c #EEEEF0",
"g 	c #ECECF0",
"h 	c #EDEDF1",
"i 	c #E7E7EC",
"j 	c #C7C7D5",
"k 	c #CCCDDB",
"l 	c #F6F7FD",
"m 	c #928574",
"n 	c #948062",
"o 	c #B9C1D9",
"p 	c #E5E5EB",
"q 	c #E3E3E9",
"r 	c #E3E3EA",
"s 	c #E4E4EA",
"t 	c #E2E2EA",
"u 	c #E2E2E8",
"v 	c #E4E4EB",
"w 	c #DADAE2",
"x 	c #C0C0CD",
"y 	c #C2C2CF",
"z 	c #C1C2D0",
"A 	c #DADCE9",
"B 	c #CDD2E1",
"C 	c #716F79",
"D 	c #AC6D12",
"E 	c #B29362",
"F 	c #B56E00",
"G 	c #DFD0BF",
"H 	c #FAFFFF",
"I 	c #FCFDFE",
"J 	c #E0E0E6",
"K 	c #D8D8E0",
"L 	c #D9D9E1",
"M 	c #DADAE1",
"N 	c #D9D9E2",
"O 	c #DBDBE2",
"P 	c #D4D4DD",
"Q 	c #B6B6C6",
"R 	c #B7B7C8",
"S 	c #B8B8C9",
"T 	c #B8B8C8",
"U 	c #BFBFD0",
"V 	c #EDEFF9",
"W 	c #6D6F82",
"X 	c #90612C",
"Y 	c #FFAA00",
"Z 	c #F7D17B",
"` 	c #C18C32",
" .	c #BFAB96",
"..	c #F0F5FF",
"+.	c #F4F5F9",
"@.	c #CBCBD7",
"#.	c #CFCFD9",
"$.	c #D0D0D9",
"%.	c #CFCFDA",
"&.	c #CCCCD8",
"*.	c #ABABBD",
"=.	c #AEAEC1",
"-.	c #AFAFC2",
";.	c #B0B0C2",
">.	c #AEAEC2",
",.	c #E0E2EC",
"'.	c #746A67",
").	c #494F77",
"!.	c #FFA500",
"~.	c #FFFFDE",
"{.	c #FDEFD2",
"].	c #C2985C",
"^.	c #A38B7D",
"/.	c #E5E8F4",
"(.	c #E9E9EE",
"_.	c #BFBFCE",
":.	c #C4C4D2",
"<.	c #C8C8D3",
"[.	c #B4B4C5",
"}.	c #A4A4B7",
"|.	c #A7A7B9",
"1.	c #A6A6B9",
"2.	c #A2A2B6",
"3.	c #A3A3B7",
"4.	c #A5A5B8",
"5.	c #A5A5B9",
"6.	c #C2C4D7",
"7.	c #B5A896",
"8.	c #5D5E6F",
"9.	c #D28500",
"0.	c #FFA300",
"a.	c #FFFFF6",
"b.	c #FDDC70",
"c.	c #FDEAC1",
"d.	c #FFFCEE",
"e.	c #5A1B00",
"f.	c #E5F2FF",
"g.	c #D3D8EA",
"h.	c #DDDEE8",
"i.	c #B4B4C4",
"j.	c #BCBCCB",
"k.	c #ADADBF",
"l.	c #9999B0",
"m.	c #9C9CB3",
"n.	c #9C9CB2",
"o.	c #ADADC0",
"p.	c #D4D4DF",
"q.	c #BEBECD",
"r.	c #9898B0",
"s.	c #999AB2",
"t.	c #9E9FB8",
"u.	c #D8DBEB",
"v.	c #485071",
"w.	c #A36400",
"x.	c #FE9E00",
"y.	c #FFFFEE",
"z.	c #FFE991",
"A.	c #F9B711",
"B.	c #763400",
"C.	c #A98861",
"D.	c #C98609",
"E.	c #AA865C",
"F.	c #CBD2E9",
"G.	c #CFD0DC",
"H.	c #E9E9ED",
"I.	c #AAAABD",
"J.	c #AFAFC1",
"K.	c #8F8FA6",
"L.	c #9393AA",
"M.	c #9292A9",
"N.	c #9E9EB3",
"O.	c #C4C4D0",
"P.	c #2B2B5A",
"Q.	c #6F6F8E",
"R.	c #F3F3F5",
"S.	c #9191A9",
"T.	c #8686A0",
"U.	c #FDFEFF",
"V.	c #74788F",
"W.	c #F4F8FE",
"X.	c #8B4B00",
"Y.	c #E48700",
"Z.	c #FFFFEB",
"`.	c #FFEB94",
" +	c #F0AC0F",
".+	c #7C4A13",
"++	c #FFD66B",
"@+	c #EBCA8C",
"#+	c #8A6338",
"$+	c #C4CAE1",
"%+	c #BFC0D1",
"&+	c #9090A9",
"*+	c #8787A2",
"=+	c #8888A3",
"-+	c #8A8AA3",
";+	c #E8E8ED",
">+	c #40406B",
",+	c #44446E",
"'+	c #494972",
")+	c #D1D1DC",
"!+	c #696B79",
"~+	c #F8C850",
"{+	c #AE6900",
"]+	c #FFC600",
"^+	c #FFFAD0",
"/+	c #FFE698",
"(+	c #FFF09C",
"_+	c #DE9806",
":+	c #7F4500",
"<+	c #FFFFCA",
"[+	c #FAE09F",
"}+	c #EFDAB7",
"|+	c #734925",
"1+	c #B7BBD2",
"2+	c #AFB0C1",
"3+	c #EFEFF2",
"4+	c #9F9FB4",
"5+	c #7B7B98",
"6+	c #7F7F9B",
"7+	c #7C7C99",
"8+	c #7C7C9A",
"9+	c #E0E0E7",
"0+	c #757593",
"a+	c #6A6A8B",
"b+	c #A0A0B4",
"c+	c #EBEBF0",
"d+	c #F1F1F4",
"e+	c #686A79",
"f+	c #F4DA80",
"g+	c #B06B00",
"h+	c #FFC500",
"i+	c #FFD469",
"j+	c #FFED9E",
"k+	c #FFD250",
"l+	c #CA8500",
"m+	c #864500",
"n+	c #FFFFCC",
"o+	c #FFEA96",
"p+	c #F7D176",
"q+	c #FFF6E3",
"r+	c #773B00",
"s+	c #A3A7C9",
"t+	c #A7ADC9",
"u+	c #9FA1BC",
"v+	c #9191AA",
"w+	c #676789",
"x+	c #6B6B8C",
"y+	c #8787A1",
"z+	c #CECED9",
"A+	c #D3D3DD",
"B+	c #A4A4B9",
"C+	c #FBFBFD",
"D+	c #ECECEF",
"E+	c #5D5D6A",
"F+	c #F5DC85",
"G+	c #E9AE27",
"H+	c #652F00",
"I+	c #E69300",
"J+	c #FFCD3B",
"K+	c #F5A905",
"L+	c #985700",
"M+	c #FFFBC7",
"N+	c #FFEDA1",
"O+	c #FFC728",
"P+	c #7D3700",
"Q+	c #8E7461",
"R+	c #BB7A06",
"S+	c #AF6F04",
"T+	c #9596B1",
"U+	c #9295B1",
"V+	c #EAEAEF",
"W+	c #B0B0C1",
"X+	c #CBCBD5",
"Y+	c #8F8FA9",
"Z+	c #DEDEE6",
"`+	c #C5C5D1",
" @	c #D5D5DF",
".@	c #E5E5EA",
"+@	c #50484F",
"@@	c #A37931",
"#@	c #F3B72C",
"$@	c #D5A12D",
"%@	c #4B1600",
"&@	c #E49200",
"*@	c #9D5E00",
"=@	c #D98300",
"-@	c #FFF8CC",
";@	c #FFEEA3",
">@	c #FDBD21",
",@	c #673D15",
"'@	c #FFBC28",
")@	c #9A5B00",
"!@	c #86859D",
"~@	c #8285A5",
"{@	c #616184",
"]@	c #83839F",
"^@	c #A2A2B8",
"/@	c #C0C0CF",
"(@	c #D2D2DC",
"_@	c #EBEBF1",
":@	c #313654",
"<@	c #965500",
"[@	c #6A3000",
"}@	c #FFFDCA",
"|@	c #FFDF7B",
"1@	c #FFF3AB",
"2@	c #F3B014",
"3@	c #522000",
"4@	c #FFD45F",
"5@	c #FEE490",
"6@	c #925E19",
"7@	c #736E89",
"8@	c #DEE0E9",
"9@	c #616185",
"0@	c #80809C",
"a@	c #C2C2D0",
"b@	c #F0F0F6",
"c@	c #9B9BA8",
"d@	c #313144",
"e@	c #FFC700",
"f@	c #FEBF33",
"g@	c #FFF3AD",
"h@	c #FFCD44",
"i@	c #E59E0B",
"j@	c #FFD256",
"k@	c #FFFFD5",
"l@	c #F9C236",
"m@	c #FFFFF5",
"n@	c #BC8631",
"o@	c #563934",
"p@	c #DFE2EB",
"q@	c #5C5C80",
"r@	c #7A7A98",
"s@	c #9999B1",
"t@	c #CECEDB",
"u@	c #A8A8B3",
"v@	c #37374B",
"w@	c #34344C",
"x@	c #E19000",
"y@	c #FFBC1E",
"z@	c #FCB10E",
"A@	c #AE6500",
"B@	c #FFCE4E",
"C@	c #FFFED3",
"D@	c #FFE063",
"E@	c #BC6A00",
"F@	c #7B5539",
"G@	c #6C6F96",
"H@	c #D9DAE5",
"I@	c #525279",
"J@	c #717191",
"K@	c #A8A8BD",
"L@	c #ACACBA",
"M@	c #414153",
"N@	c #3C3C51",
"O@	c #DF8F00",
"P@	c #9F6101",
"Q@	c #FAC752",
"R@	c #FFFCD0",
"S@	c #FFE466",
"T@	c #A15500",
"U@	c #5E627C",
"V@	c #BFC1D5",
"W@	c #D6D6E1",
"X@	c #6F6F91",
"Y@	c #ADADBB",
"Z@	c #4D4D5D",
"`@	c #434357",
" #	c #FFD655",
".#	c #FFF4B3",
"+#	c #FDE9A3",
"@#	c #FFDC59",
"##	c #9A5000",
"$#	c #555567",
"%#	c #C8C8D1",
"&#	c #525262",
"*#	c #4D4D5E",
"=#	c #FFA900",
"-#	c #FFEB9C",
";#	c #FFDB65",
">#	c #FFC52E",
",#	c #954F00",
"'#	c #535365",
")#	c #F19A00",
"!#	c #FFC931",
"~#	c #C37600",
"{#	c #C87D00",
"                                                                ",
"                                                                ",
"                                                                ",
"                                                                ",
"                                                                ",
"                    . + @ #                                     ",
"                $ % & * * = - ;                                 ",
"            > , * * * * * ' * ) !                               ",
"      ~ { ] * * * * * * * * ^ / ( _ :                           ",
"    < [ * } | 1 1 2 3 3 3 4 5 6 7 8 9                           ",
"    0 } * a b c d e f g h h h i j k l m n                       ",
"    o * * * p q q r s t u q v w x y z A B C D                   ",
"    E F G H I J K L M w N O P Q R S T R U V W X                 ",
"  Y Z * `  ...+.6 @.#.$.%.&.*.=.-.;.;.-.=.>.,.'.).              ",
"  !.~.{.* ].^./.(.J _.:.<.[.}.|.|.1.}.2.3.4.5.6.7.8.9.          ",
"  0.a.b.c.d.e.f.g.h.q i.j.k.l.m.n.l.o.p.q.r.l.s.t.u.v.w.        ",
"  x.y.z.A.B.C.D.E.F.G.H.I.J.K.L.M.N.O.P.Q.R.S.T.l.U.V.W.X.      ",
"  Y.Z.`. +.+++* @+#+$+%+h 4.&+*+=+-+;+>+,+'+q )+* * !+~+{+      ",
"]+^+/+(+_+:+<+[+* }+|+1+2+3+4+5+6+7+8+9+0+a+b+c+d+* e+f+g+      ",
"h+i+j+k+l+m+n+o+p+q+r+s+t+u+c+v+w+x+y+z+A+B+C+6 D+* E+F+G+H+    ",
"  I+J+K+L+  M+N+O+P+Q+R+S+T+U+V+W+X+N.Y+* Z+`+ @.@* +@@@#@$@%@  ",
"    &@*@  =@-@;@>@,@'@* * )@!@~@* {@]@L.^@k./@(@_@* :@  <@[@    ",
"        ]+}@|@1@2@3@4@5@* * 6@7@8@9@0@Y+N.o.a@b@c@d@            ",
"        e@f@g@h@i@  j@k@l@m@n@o@p@q@r@*+s@t@u@v@w@              ",
"          x@y@z@A@  B@C@D@E@F@G@H@I@J@K@L@M@N@                  ",
"            O@P@    Q@R@S@T@U@V@W@X@Y@Z@`@                      ",
"                   #.#+#@###  $#%#&#*#                          ",
"                  =#-#;#>#,#    '#                              ",
"                    )#!#~#                                      ",
"                      {#                                        ",
"                                                                ",
"                                                                "};
