/* XPM */
static char *processor[]={
"16 15 108 2",
"Qt c None",
"#M c #be4000",
"#L c #d45800",
".e c #e76f00",
".b c #f07900",
".s c #fefebb",
"#P c #b43600",
"#I c #db6100",
"#g c #c34600",
"## c #c54800",
".5 c #c34700",
"#E c #c54800",
"#D c #d25500",
".n c #ed7600",
".Y c #ef7800",
".X c #c24500",
".6 c #ef9319",
".Q c #f78000",
"#N c #bb3c00",
"#p c #bf4200",
"#K c #d65a00",
".i c #e46b00",
".r c #e48215",
".f c #ef7800",
"#a c #f0ae3e",
".P c #c24400",
".G c #c34600",
".a c #ef7700",
".# c #f27a00",
".H c #fd8900",
".t c #fe8a00",
"#z c #bc3e00",
".F c #c64a00",
"#h c #ea9320",
".v c #f88300",
".u c #fb8800",
"#v c #cb4e00",
"#u c #cf5300",
".m c #e27002",
".j c #ef7e02",
"#H c #be3e00",
"#F c #c54600",
".E c #d56b0e",
"#C c #d65a00",
".d c #ed8307",
".c c #f28807",
"#O c #b73800",
".W c #cf5c03",
".4 c #d15c02",
"#. c #d56103",
".D c #d56406",
"#J c #d95f00",
".O c #d97612",
"#w c #db6001",
"#G c #dc5900",
"#f c #dc6a04",
".C c #de7c15",
"#A c #e16a02",
".B c #e17f15",
"#t c #e26601",
"#o c #e77104",
"#q c #e78515",
"#B c #ea6900",
".7 c #ea7f02",
".q c #ea9722",
"#b c #ef8803",
".Z c #ef8808",
".y c #f09215",
".o c #f2a31d",
"#i c #f38d03",
".x c #f39715",
".3 c #f3a91c",
".h c #f3b131",
".w c #f58c06",
".R c #f58e03",
"#y c #f77e03",
".g c #f7b526",
"#l c #f88808",
"#m c #f89307",
"#r c #fa8e02",
".0 c #fac216",
".A c #fae755",
"#s c #fb8203",
"#x c #fb8c03",
".I c #fbae27",
".V c #fbc629",
".N c #fbdc49",
".z c #fbea4e",
".S c #fde232",
".l c #fdf354",
".k c #fdf554",
"#k c #fe9709",
"#n c #fea608",
"#j c #fea708",
"#e c #feb40e",
"#d c #feb50e",
"#c c #feb70e",
".9 c #febf17",
".8 c #fec615",
".2 c #fecf20",
".1 c #fed61e",
".U c #fee129",
".T c #fee528",
".J c #fef05f",
".L c #fef732",
".M c #fef746",
".K c #fef74d",
".p c #fefe37",
"QtQtQtQtQtQtQt.#.aQtQtQtQtQtQtQt",
"QtQtQtQtQtQt.b.c.d.eQtQtQtQtQtQt",
"QtQtQtQtQtQt.f.g.h.iQtQtQtQtQtQt",
"QtQtQtQtQtQt.j.k.l.mQtQtQtQtQtQt",
"QtQtQtQtQt.n.o.p.p.q.r.sQtQtQtQt",
".t.u.v.w.x.y.z.p.p.A.B.C.D.E.F.G",
".H.I.J.K.K.L.L.L.L.L.L.M.K.N.O.P",
"Qt.Q.R.S.T.T.T.T.T.T.T.U.V.W.XQt",
"QtQt.Y.Z.0.1.1.1.1.1.2.3.4.5QtQt",
"QtQtQt.6.7.8.8.8.8.8.9#.##QtQtQt",
"QtQtQt#a#b#c#c#d#c#c#e#f#gQtQtQt",
"QtQtQt#h#i#j#k#l#m#n#j#o#pQtQtQt",
"QtQtQt#q#r#s#t#u#v#w#x#y#zQtQtQt",
"QtQt.s#A#B#C#DQtQt#E#F#G#HQtQtQt",
"QtQt#I#J#K#LQtQtQtQt#M#N#O#PQtQt"};
