/* XPM */
static char *subprocessor[]={
"16 15 93 2",
"Qt c None",
".W c None",
"#y c #be4000",
"#x c #d45800",
".e c #e76f00",
".b c #f07900",
".s c #fefebb",
"#A c #b43600",
"#u c #db6100",
"#s c #c54800",
"#r c #d25500",
".n c #ed7600",
".X c #ef7800",
".4 c #ef9319",
".Q c #f78000",
"#z c #bb3c00",
"#w c #d65a00",
".i c #e46b00",
".r c #e48215",
".f c #ef7800",
".8 c #f0ae3e",
".P c #c24400",
".G c #c34600",
".a c #ef7700",
".# c #f27a00",
".H c #fd8900",
".t c #fe8a00",
".F c #c64a00",
"#a c #ea9320",
".v c #f88300",
".u c #fb8800",
"#m c #cb4e00",
"#l c #cf5300",
".m c #e27002",
".j c #ef7e02",
"#t c #c54600",
".E c #d56b0e",
"#q c #d65a00",
".d c #ed8307",
".c c #f28807",
".V c #204000",
"#g c #2f5000",
".U c #50782f",
".7 c #6fb81f",
".3 c #8fe03f",
".2 c #cfff9f",
".D c #d56406",
"#v c #d95f00",
".O c #d97612",
"#n c #db6001",
".C c #de7c15",
"#o c #e16a02",
".B c #e17f15",
"#k c #e26601",
"#h c #e78515",
"#p c #ea6900",
".5 c #ea7f02",
".q c #ea9722",
".9 c #ef8803",
".Y c #ef8808",
".y c #f09215",
".o c #f2a31d",
"#b c #f38d03",
".x c #f39715",
".h c #f3b131",
".w c #f58c06",
".R c #f58e03",
".g c #f7b526",
"#e c #f88808",
"#f c #f89307",
"#i c #fa8e02",
".Z c #fac216",
".A c #fae755",
"#j c #fb8203",
".I c #fbae27",
".N c #fbdc49",
".z c #fbea4e",
".S c #fde232",
".l c #fdf354",
".k c #fdf554",
"#d c #fe9709",
"#c c #fea708",
"## c #feb50e",
"#. c #feb70e",
".6 c #fec615",
".0 c #fed61e",
".T c #fee528",
".J c #fef05f",
".L c #fef732",
".M c #fef746",
".K c #fef74d",
".p c #fefe37",
".1 c #ffffff",
"QtQtQtQtQtQtQt.#.aQtQtQtQtQtQtQt",
"QtQtQtQtQtQt.b.c.d.eQtQtQtQtQtQt",
"QtQtQtQtQtQt.f.g.h.iQtQtQtQtQtQt",
"QtQtQtQtQtQt.j.k.l.mQtQtQtQtQtQt",
"QtQtQtQtQt.n.o.p.p.q.r.sQtQtQtQt",
".t.u.v.w.x.y.z.p.p.A.B.C.D.E.F.G",
".H.I.J.K.K.L.L.L.L.L.L.M.K.N.O.P",
"Qt.Q.R.S.T.T.T.T.T.T.U.U.U.U.V.W",
"QtQt.X.Y.Z.0.0.0.0.0.U.1.2.3.V.W",
"QtQtQt.4.5.6.6.6.6.6.U.2.3.7.V.W",
"QtQtQt.8.9#.#.##.U.U.U.2.3.7.V.V",
"QtQtQt#a#b#c#d#e#f#g.2.2.3.7.7.V",
"QtQtQt#h#i#j#k#l#m#n#g.3.3.7.V.W",
"QtQt.s#o#p#q#rQt.W#s#t#g.7.V.W.W",
"QtQt#u#v#w#xQtQt.W.W#y#z.V#A.W.W"};
